<?xml version="1.0" encoding="UTF-8" standalone="no"?>
<!-- Uploaded to: SVG Repo, www.svgrepo.com, Generator: SVG Repo Mixer Tools -->
<svg
  width="800px"
  height="800px"
  viewBox="-1 -1 34 34"
  version="1.1"
  xmlns="http://www.w3.org/2000/svg"
  xmlns:xlink="http://www.w3.org/1999/xlink"
  xmlns:sketch="http://www.bohemiancoding.com/sketch/ns"
>
  <title>comment-1</title>
  <desc>Created with Sketch Beta.</desc>
  <defs></defs>
  <g
    id="Page-1"
    stroke="#72767A"
    stroke-width="1"
    fill="#72767A"
    fill-rule="evenodd"
    sketch:type="MSPage"
  >
    <g
      id="Icon-Set"
      sketch:type="MSLayerGroup"
      transform="translate(-100,-255)"
      fill="#72767A"
    >
      <path
        d="M 116 281 C 114.8 281 113.7 280.8 112.6 280.6 L 107.9 283.4 L 108 278.8 C 104.4 276.6 102 273 102 269 C 102 262.3 108.3 257 116 257 C 123.7 257 130 262.3 130 269 C 130 275.6 123.7 281 116 281 L 116 281 Z M 116 255 C 107.2 255 100 261.2 100 269 C 100 273.4 102.3 277.3 106 279.9 L 106 287 L 113 282.7 C 114 282.9 115 283 116 283 C 124.8 283 132 276.7 132 269 C 132 261.2 124.8 255 116 255 L 116 255 Z"
        id="comment-1"
        sketch:type="MSShapeGroup"
      ></path>
    </g>
  </g>
</svg>
